{
  "accessors": [
    {
      "bufferView": 2,
      "componentType": 5126,
      "count": 1773,
      "max": [
        1.2208962440490723,
        0.58130693435668945,
        -5.5323410034179688
      ],
      "min": [
        -1.2208962440490723,
        -0.57941067218780518,
        -7.4518589973449707
      ],
      "type": "VEC3"
    },
    {
      "bufferView": 2,
      "byteOffset": 21276,
      "componentType": 5126,
      "count": 1773,
      "max": [
        1,
        1,
        1
      ],
      "min": [
        -1,
        -1,
        -1
      ],
      "type": "VEC3"
    },
    {
      "bufferView": 1,
      "componentType": 5126,
      "count": 1773,
      "max": [
        1,
        1
      ],
      "min": [
        0,
        0
      ],
      "type": "VEC2"
    },
    {
      "bufferView": 0,
      "componentType": 5125,
      "count": 5178,
      "max": [
        1772
      ],
      "min": [
        0
      ],
      "type": "SCALAR"
    },
    {
      "bufferView": 2,
      "byteOffset": 42552,
      "componentType": 5126,
      "count": 5886,
      "max": [
        0.105040043592453,
        0.24924856424331665,
        0.31966200470924377
      ],
      "min": [
        -0.105040043592453,
        -0.25261759757995605,
        -0.18963412940502167
      ],
      "type": "VEC3"
    },
    {
      "bufferView": 2,
      "byteOffset": 113184,
      "componentType": 5126,
      "count": 5886,
      "max": [
        1,
        1,
        1
      ],
      "min": [
        -1,
        -1,
        -1
      ],
      "type": "VEC3"
    },
    {
      "bufferView": 1,
      "byteOffset": 14184,
      "componentType": 5126,
      "count": 5886,
      "max": [
        1,
        1
      ],
      "min": [
        0,
        0
      ],
      "type": "VEC2"
    },
    {
      "bufferView": 0,
      "byteOffset": 20712,
      "componentType": 5125,
      "count": 25749,
      "max": [
        5885
      ],
      "min": [
        0
      ],
      "type": "SCALAR"
    },
    {
      "bufferView": 2,
      "byteOffset": 183816,
      "componentType": 5126,
      "count": 2250,
      "max": [
        0.10428996384143829,
        0.24665266275405884,
        -0.18963411450386047
      ],
      "min": [
        -0.10428996384143829,
        -0.24746835231781006,
        -0.32485365867614746
      ],
      "type": "VEC3"
    },
    {
      "bufferView": 2,
      "byteOffset": 210816,
      "componentType": 5126,
      "count": 2250,
      "max": [
        1,
        1,
        1
      ],
      "min": [
        -1,
        -1,
        -1
      ],
      "type": "VEC3"
    },
    {
      "bufferView": 1,
      "byteOffset": 61272,
      "componentType": 5126,
      "count": 2250,
      "max": [
        0.97466331720352173,
        1
      ],
      "min": [
        0,
        0
      ],
      "type": "VEC2"
    },
    {
      "bufferView": 0,
      "byteOffset": 123708,
      "componentType": 5125,
      "count": 8949,
      "max": [
        2249
      ],
      "min": [
        0
      ],
      "type": "SCALAR"
    },
    {
      "bufferView": 2,
      "byteOffset": 237816,
      "componentType": 5126,
      "count": 3493,
      "max": [
        0.068261101841926575,
        0.15850555896759033,
        0.31966203451156616
      ],
      "min": [
        -0.068261101841926575,
        -0.15932126343250275,
        0.18050506711006165
      ],
      "type": "VEC3"
    },
    {
      "bufferView": 2,
      "byteOffset": 279732,
      "componentType": 5126,
      "count": 3493,
      "max": [
        1,
        1,
        1
      ],
      "min": [
        -1,
        -1,
        -1
      ],
      "type": "VEC3"
    },
    {
      "bufferView": 1,
      "byteOffset": 79272,
      "componentType": 5126,
      "count": 3493,
      "max": [
        1,
        1
      ],
      "min": [
        0,
        -1.3444494470604695e-05
      ],
      "type": "VEC2"
    },
    {
      "bufferView": 0,
      "byteOffset": 159504,
      "componentType": 5125,
      "count": 11556,
      "max": [
        3492
      ],
      "min": [
        0
      ],
      "type": "SCALAR"
    },
    {
      "bufferView": 2,
      "byteOffset": 321648,
      "componentType": 5126,
      "count": 282,
      "max": [
        0.06062491238117218,
        0.12142458558082581,
        0.31846770644187927
      ],
      "min": [
        -0.06062491238117218,
        -0.12224021553993225,
        0.21302638947963715
      ],
      "type": "VEC3"
    },
    {
      "bufferView": 2,
      "byteOffset": 325032,
      "componentType": 5126,
      "count": 282,
      "max": [
        1,
        1,
        1
      ],
      "min": [
        -1,
        -1,
        -1
      ],
      "type": "VEC3"
    },
    {
      "bufferView": 1,
      "byteOffset": 107216,
      "componentType": 5126,
      "count": 282,
      "max": [
        0,
        0
      ],
      "min": [
        0,
        0
      ],
      "type": "VEC2"
    },
    {
      "bufferView": 0,
      "byteOffset": 205728,
      "componentType": 5125,
      "count": 711,
      "max": [
        281
      ],
      "min": [
        0
      ],
      "type": "SCALAR"
    },
    {
      "bufferView": 2,
      "byteOffset": 328416,
      "componentType": 5126,
      "count": 606,
      "max": [
        0.046368513256311417,
        -0.011850578710436821,
        0.31257939338684082
      ],
      "min": [
        -0.046368513256311417,
        -0.030570751056075096,
        0.22889688611030579
      ],
      "type": "VEC3"
    },
    {
      "bufferView": 2,
      "byteOffset": 335688,
      "componentType": 5126,
      "count": 606,
      "max": [
        1,
        1,
        1
      ],
      "min": [
        -1,
        -1,
        -1
      ],
      "type": "VEC3"
    },
    {
      "bufferView": 1,
      "byteOffset": 109472,
      "componentType": 5126,
      "count": 606,
      "max": [
        1.0000001192092896,
        1
      ],
      "min": [
        -1.1920928955078125e-07,
        0
      ],
      "type": "VEC2"
    },
    {
      "bufferView": 0,
      "byteOffset": 208572,
      "componentType": 5125,
      "count": 1494,
      "max": [
        605
      ],
      "min": [
        0
      ],
      "type": "SCALAR"
    }
  ],
  "asset": {
    "extras": {
      "author": "Dead_Cell (https://sketchfab.com/Dead_Cell)",
      "license": "CC-BY-4.0 (http://creativecommons.org/licenses/by/4.0/)",
      "source": "https://sketchfab.com/3d-models/bad-usb-flash-drive-1306677a8ad340b6b44a8a9c47f12e04",
      "title": "Bad USB flash drive"
    },
    "generator": "Sketchfab-9.64.0",
    "version": "2.0"
  },
  "bufferViews": [
    {
      "buffer": 0,
      "byteLength": 214548,
      "byteOffset": 0,
      "name": "floatBufferViews",
      "target": 34963
    },
    {
      "buffer": 0,
      "byteLength": 114320,
      "byteOffset": 214548,
      "byteStride": 8,
      "name": "floatBufferViews",
      "target": 34962
    },
    {
      "buffer": 0,
      "byteLength": 342960,
      "byteOffset": 328868,
      "byteStride": 12,
      "name": "floatBufferViews",
      "target": 34962
    }
  ],
  "buffers": [
    {
      "byteLength": 671828,
      "uri": "scene.bin"
    }
  ],
  "images": [
    {
      "uri": "textures/Material.001_baseColor.png"
    }
  ],
  "materials": [
    {
      "doubleSided": true,
      "emissiveFactor": [
        0,
        0,
        0
      ],
      "name": "Material.001",
      "pbrMetallicRoughness": {
        "baseColorFactor": [
          1,
          1,
          1,
          1
        ],
        "baseColorTexture": {
          "index": 0,
          "texCoord": 0
        },
        "metallicFactor": 0,
        "roughnessFactor": 0.5
      }
    },
    {
      "doubleSided": true,
      "name": "material",
      "pbrMetallicRoughness": {
        "baseColorFactor": [
          0.80000000000000004,
          0.015423900000000001,
          0.0093929200000000008,
          1
        ],
        "metallicFactor": 0,
        "roughnessFactor": 0.40000000000000002
      }
    },
    {
      "doubleSided": true,
      "emissiveFactor": [
        0,
        0,
        0
      ],
      "name": "steal",
      "pbrMetallicRoughness": {
        "baseColorFactor": [
          0.080011899999999997,
          0.080011899999999997,
          0.080011899999999997,
          1
        ],
        "metallicFactor": 1,
        "roughnessFactor": 0.5
      }
    },
    {
      "doubleSided": true,
      "emissiveFactor": [
        0,
        0,
        0
      ],
      "name": "blue",
      "pbrMetallicRoughness": {
        "baseColorFactor": [
          0.097497799999999996,
          0.093618199999999999,
          0.80000000000000004,
          1
        ],
        "metallicFactor": 0,
        "roughnessFactor": 0.5
      }
    },
    {
      "doubleSided": true,
      "emissiveFactor": [
        0,
        0,
        0
      ],
      "name": "steal2",
      "pbrMetallicRoughness": {
        "baseColorFactor": [
          0.094625899999999999,
          0.094625899999999999,
          0.094625899999999999,
          1
        ],
        "metallicFactor": 0,
        "roughnessFactor": 0.5
      }
    }
  ],
  "meshes": [
    {
      "primitives": [
        {
          "attributes": {
            "NORMAL": 1,
            "POSITION": 0,
            "TEXCOORD_0": 2
          },
          "indices": 3,
          "material": 0,
          "mode": 4
        }
      ]
    },
    {
      "primitives": [
        {
          "attributes": {
            "NORMAL": 5,
            "POSITION": 4,
            "TEXCOORD_0": 6
          },
          "indices": 7,
          "material": 0,
          "mode": 4
        }
      ]
    },
    {
      "primitives": [
        {
          "attributes": {
            "NORMAL": 9,
            "POSITION": 8,
            "TEXCOORD_0": 10
          },
          "indices": 11,
          "material": 1,
          "mode": 4
        }
      ]
    },
    {
      "primitives": [
        {
          "attributes": {
            "NORMAL": 13,
            "POSITION": 12,
            "TEXCOORD_0": 14
          },
          "indices": 15,
          "material": 2,
          "mode": 4
        }
      ]
    },
    {
      "primitives": [
        {
          "attributes": {
            "NORMAL": 17,
            "POSITION": 16,
            "TEXCOORD_0": 18
          },
          "indices": 19,
          "material": 3,
          "mode": 4
        }
      ]
    },
    {
      "primitives": [
        {
          "attributes": {
            "NORMAL": 21,
            "POSITION": 20,
            "TEXCOORD_0": 22
          },
          "indices": 23,
          "material": 4,
          "mode": 4
        }
      ]
    }
  ],
  "nodes": [
    {
      "children": [
        1
      ],
      "name": "RootNode (gltf orientation matrix)",
      "rotation": [
        -0.70710678118654746,
        -0,
        -0,
        0.70710678118654757
      ]
    },
    {
      "children": [
        2
      ],
      "matrix": [
        1,
        0,
        0,
        0,
        0,
        1,
        1.6081226229577292e-16,
        0,
        0,
        -1.6081226229577292e-16,
        1,
        0,
        0,
        0,
        3.8421414487455063e-18,
        1
      ],
      "name": "RootNode (model correction matrix)"
    },
    {
      "children": [
        3
      ],
      "name": "root"
    },
    {
      "children": [
        4,
        6
      ],
      "matrix": [
        1,
        0,
        0,
        0,
        0,
        2.2204460492503131e-16,
        1,
        0,
        0,
        -1,
        2.2204460492503131e-16,
        0,
        0,
        0,
        0,
        1
      ],
      "name": "GLTF_SceneRootNode"
    },
    {
      "children": [
        5
      ],
      "matrix": [
        -0.0086035206913948059,
        -0,
        -0,
        -0,
        -0,
        -0.0086035206913948059,
        -0,
        -0,
        -0,
        -0,
        -0.0086035206913948059,
        -0,
        0,
        0,
        0,
        1
      ],
      "name": "Cube.001_1"
    },
    {
      "mesh": 0,
      "name": ""
    },
    {
      "children": [
        7,
        8,
        9,
        10,
        11
      ],
      "matrix": [
        0.10000002384185791,
        0,
        0,
        0,
        0,
        0.020000003278255463,
        0,
        0,
        0,
        0,
        0.10000002384185791,
        0,
        0,
        0,
        0,
        1
      ],
      "name": "Cube.004_2"
    },
    {
      "mesh": 1,
      "name": ""
    },
    {
      "mesh": 2,
      "name": ""
    },
    {
      "mesh": 3,
      "name": ""
    },
    {
      "mesh": 4,
      "name": ""
    },
    {
      "mesh": 5,
      "name": ""
    }
  ],
  "samplers": [
    {
      "magFilter": 9729,
      "minFilter": 9987,
      "wrapS": 10497,
      "wrapT": 10497
    }
  ],
  "scene": 0,
  "scenes": [
    {
      "name": "OSG_Scene",
      "nodes": [
        0
      ]
    }
  ],
  "textures": [
    {
      "sampler": 0,
      "source": 0
    }
  ]
}

