{
  "accessors": [
    {
      "bufferView": 2,
      "componentType": 5126,
      "count": 374,
      "max": [
        0.036305129528045654,
        0.99124354124069214,
        0.90000057220458984
      ],
      "min": [
        -0.050631105899810791,
        -0.99124354124069214,
        -1.0946739912033081
      ],
      "type": "VEC3"
    },
    {
      "bufferView": 2,
      "byteOffset": 4488,
      "componentType": 5126,
      "count": 374,
      "max": [
        1,
        1,
        1
      ],
      "min": [
        0,
        -1,
        -0.94469112157821655
      ],
      "type": "VEC3"
    },
    {
      "bufferView": 1,
      "componentType": 5126,
      "count": 374,
      "max": [
        0.96055924892425537,
        0.96270191669464111
      ],
      "min": [
        0,
        0
      ],
      "type": "VEC2"
    },
    {
      "bufferView": 0,
      "componentType": 5125,
      "count": 1164,
      "max": [
        373
      ],
      "min": [
        0
      ],
      "type": "SCALAR"
    },
    {
      "bufferView": 2,
      "byteOffset": 8976,
      "componentType": 5126,
      "count": 97,
      "max": [
        0.036473143845796585,
        0.99124354124069214,
        0.90000057220458984
      ],
      "min": [
        -0.050631105899810791,
        -0.99124354124069214,
        -1.0999994277954102
      ],
      "type": "VEC3"
    },
    {
      "bufferView": 2,
      "byteOffset": 10140,
      "componentType": 5126,
      "count": 97,
      "max": [
        1,
        1,
        1
      ],
      "min": [
        -1,
        -1,
        -1
      ],
      "type": "VEC3"
    },
    {
      "bufferView": 1,
      "byteOffset": 2992,
      "componentType": 5126,
      "count": 97,
      "max": [
        1,
        0.96994310617446899
      ],
      "min": [
        0,
        0
      ],
      "type": "VEC2"
    },
    {
      "bufferView": 0,
      "byteOffset": 4656,
      "componentType": 5125,
      "count": 201,
      "max": [
        96
      ],
      "min": [
        0
      ],
      "type": "SCALAR"
    },
    {
      "bufferView": 2,
      "byteOffset": 11304,
      "componentType": 5126,
      "count": 123,
      "max": [
        0.050631105899810791,
        0.99124354124069214,
        1.0999994277954102
      ],
      "min": [
        -0.050631105899810791,
        -0.99124354124069214,
        -1.0946739912033081
      ],
      "type": "VEC3"
    },
    {
      "bufferView": 2,
      "byteOffset": 12780,
      "componentType": 5126,
      "count": 123,
      "max": [
        1,
        1,
        1
      ],
      "min": [
        -1,
        -1,
        -1
      ],
      "type": "VEC3"
    },
    {
      "bufferView": 1,
      "byteOffset": 3768,
      "componentType": 5126,
      "count": 123,
      "max": [
        0.9989473819732666,
        0.99999994039535522
      ],
      "min": [
        7.228920395618843e-08,
        0
      ],
      "type": "VEC2"
    },
    {
      "bufferView": 0,
      "byteOffset": 5460,
      "componentType": 5125,
      "count": 324,
      "max": [
        122
      ],
      "min": [
        0
      ],
      "type": "SCALAR"
    },
    {
      "bufferView": 2,
      "byteOffset": 14256,
      "componentType": 5126,
      "count": 64,
      "max": [
        -0.030187183991074562,
        0.11790590733289719,
        0.017907720059156418
      ],
      "min": [
        -0.032238252460956573,
        -0.11790721863508224,
        -0.21790659427642822
      ],
      "type": "VEC3"
    },
    {
      "bufferView": 2,
      "byteOffset": 15024,
      "componentType": 5126,
      "count": 64,
      "max": [
        0.9999997615814209,
        0.028962157666683197,
        0.0288402009755373
      ],
      "min": [
        0.99957597255706787,
        -0.0288402009755373,
        -0.0288402009755373
      ],
      "type": "VEC3"
    },
    {
      "bufferView": 1,
      "byteOffset": 4752,
      "componentType": 5126,
      "count": 64,
      "max": [
        0.48061069846153259,
        0.56397032737731934
      ],
      "min": [
        0.25330185890197754,
        0.53384113311767578
      ],
      "type": "VEC2"
    },
    {
      "bufferView": 0,
      "byteOffset": 6756,
      "componentType": 5125,
      "count": 186,
      "max": [
        63
      ],
      "min": [
        0
      ],
      "type": "SCALAR"
    },
    {
      "bufferView": 2,
      "byteOffset": 15792,
      "componentType": 5126,
      "count": 950,
      "max": [
        0.010475716553628445,
        0.98632043600082397,
        0.87954652309417725
      ],
      "min": [
        -0.032238252460956573,
        -0.98632043600082397,
        -1.0795453786849976
      ],
      "type": "VEC3"
    },
    {
      "bufferView": 2,
      "byteOffset": 27192,
      "componentType": 5126,
      "count": 950,
      "max": [
        0.9999622106552124,
        0.99951231479644775,
        1
      ],
      "min": [
        -0.16824941337108612,
        -0.99951231479644775,
        -1
      ],
      "type": "VEC3"
    },
    {
      "bufferView": 1,
      "byteOffset": 5264,
      "componentType": 5126,
      "count": 950,
      "max": [
        0.48061072826385498,
        0.86978566646575928
      ],
      "min": [
        2.9298394266241701e-10,
        0.53342550992965698
      ],
      "type": "VEC2"
    },
    {
      "bufferView": 0,
      "byteOffset": 7500,
      "componentType": 5125,
      "count": 2028,
      "max": [
        949
      ],
      "min": [
        0
      ],
      "type": "SCALAR"
    },
    {
      "bufferView": 2,
      "byteOffset": 38592,
      "componentType": 5126,
      "count": 186,
      "max": [
        1,
        0.0514412522315979,
        -0.0050988495349884033
      ],
      "min": [
        -1.0000004768371582,
        -0.0514412522315979,
        -2.1999988555908203
      ],
      "type": "VEC3"
    },
    {
      "bufferView": 2,
      "byteOffset": 40824,
      "componentType": 5126,
      "count": 186,
      "max": [
        1,
        1,
        1
      ],
      "min": [
        -1,
        -1,
        -1
      ],
      "type": "VEC3"
    },
    {
      "bufferView": 1,
      "byteOffset": 12864,
      "componentType": 5126,
      "count": 186,
      "max": [
        1,
        1
      ],
      "min": [
        0,
        0.0014432370662689209
      ],
      "type": "VEC2"
    },
    {
      "bufferView": 0,
      "byteOffset": 15612,
      "componentType": 5125,
      "count": 336,
      "max": [
        185
      ],
      "min": [
        0
      ],
      "type": "SCALAR"
    },
    {
      "bufferView": 2,
      "byteOffset": 43056,
      "componentType": 5126,
      "count": 4,
      "max": [
        0.99246048927307129,
        0.04816591739654541,
        -0.19888631999492645
      ],
      "min": [
        -0.99246048927307129,
        0.04816591739654541,
        -2.1924595832824707
      ],
      "type": "VEC3"
    },
    {
      "bufferView": 2,
      "byteOffset": 43104,
      "componentType": 5126,
      "count": 4,
      "max": [
        0,
        -1,
        -0
      ],
      "min": [
        0,
        -1,
        -0
      ],
      "type": "VEC3"
    },
    {
      "bufferView": 1,
      "byteOffset": 14352,
      "componentType": 5126,
      "count": 4,
      "max": [
        0.99999994039535522,
        0.99999994039535522
      ],
      "min": [
        0,
        0
      ],
      "type": "VEC2"
    },
    {
      "bufferView": 1,
      "byteOffset": 14384,
      "componentType": 5126,
      "count": 4,
      "max": [
        0.99999994039535522,
        0.99999994039535522
      ],
      "min": [
        0,
        0
      ],
      "type": "VEC2"
    },
    {
      "bufferView": 1,
      "byteOffset": 14416,
      "componentType": 5126,
      "count": 4,
      "max": [
        0.99999994039535522,
        0.99999994039535522
      ],
      "min": [
        0,
        0
      ],
      "type": "VEC2"
    },
    {
      "bufferView": 0,
      "byteOffset": 16956,
      "componentType": 5125,
      "count": 6,
      "max": [
        3
      ],
      "min": [
        0
      ],
      "type": "SCALAR"
    },
    {
      "bufferView": 2,
      "byteOffset": 43152,
      "componentType": 5126,
      "count": 2788,
      "max": [
        0.9147648811340332,
        0.0066911778412759304,
        0.9147648811340332
      ],
      "min": [
        -0.91476482152938843,
        -0.0015309769660234451,
        -0.91476482152938843
      ],
      "type": "VEC3"
    },
    {
      "bufferView": 2,
      "byteOffset": 76608,
      "componentType": 5126,
      "count": 2788,
      "max": [
        0.99980813264846802,
        1,
        0.99980819225311279
      ],
      "min": [
        -0.99980819225311279,
        -1,
        -0.99980813264846802
      ],
      "type": "VEC3"
    },
    {
      "bufferView": 1,
      "byteOffset": 14448,
      "componentType": 5126,
      "count": 2788,
      "max": [
        0.98264145851135254,
        0.98264110088348389
      ],
      "min": [
        0.017358900979161263,
        0.017358932644128799
      ],
      "type": "VEC2"
    },
    {
      "bufferView": 0,
      "byteOffset": 16980,
      "componentType": 5125,
      "count": 2880,
      "max": [
        2787
      ],
      "min": [
        0
      ],
      "type": "SCALAR"
    },
    {
      "bufferView": 2,
      "byteOffset": 110064,
      "componentType": 5126,
      "count": 518,
      "max": [
        0.32980456948280334,
        0.0093124089762568474,
        0.32980367541313171
      ],
      "min": [
        -0.32980456948280334,
        -0.0015309769660234451,
        -0.32980558276176453
      ],
      "type": "VEC3"
    },
    {
      "bufferView": 2,
      "byteOffset": 116280,
      "componentType": 5126,
      "count": 518,
      "max": [
        0.99518501758575439,
        1,
        0.99518501758575439
      ],
      "min": [
        -0.99518489837646484,
        -1.5387417079182342e-05,
        -0.99518495798110962
      ],
      "type": "VEC3"
    },
    {
      "bufferView": 1,
      "byteOffset": 36752,
      "componentType": 5126,
      "count": 518,
      "max": [
        0.69170922040939331,
        0.69170975685119629
      ],
      "min": [
        0.30828976631164551,
        0.30829030275344849
      ],
      "type": "VEC2"
    },
    {
      "bufferView": 0,
      "byteOffset": 28500,
      "componentType": 5125,
      "count": 576,
      "max": [
        517
      ],
      "min": [
        0
      ],
      "type": "SCALAR"
    }
  ],
  "asset": {
    "extras": {
      "author": "blue man group (https://sketchfab.com/bloobloo)",
      "license": "CC-BY-4.0 (http://creativecommons.org/licenses/by/4.0/)",
      "source": "https://sketchfab.com/3d-models/cd-jewel-case-f6c8386e76e54918b551ebdd276479dd",
      "title": "CD + Jewel Case"
    },
    "generator": "Sketchfab-8.49.0",
    "version": "2.0"
  },
  "bufferViews": [
    {
      "buffer": 0,
      "byteLength": 30804,
      "byteOffset": 0,
      "name": "floatBufferViews",
      "target": 34963
    },
    {
      "buffer": 0,
      "byteLength": 40896,
      "byteOffset": 30804,
      "byteStride": 8,
      "name": "floatBufferViews",
      "target": 34962
    },
    {
      "buffer": 0,
      "byteLength": 122496,
      "byteOffset": 71700,
      "byteStride": 12,
      "name": "floatBufferViews",
      "target": 34962
    }
  ],
  "buffers": [
    {
      "byteLength": 194196,
      "uri": "scene.bin"
    }
  ],
  "images": [
    {
      "uri": "textures/Cover_baseColor.png"
    },
    {
      "uri": "textures/Cover_metallicRoughness.png"
    },
    {
      "uri": "textures/Material.001_baseColor.png"
    }
  ],
  "materials": [
    {
      "doubleSided": true,
      "name": "Rough_Plastic",
      "pbrMetallicRoughness": {
        "baseColorFactor": [
          0.049549099999999999,
          0.049549099999999999,
          0.049549099999999999,
          1
        ],
        "metallicFactor": 0,
        "roughnessFactor": 1
      }
    },
    {
      "alphaMode": "BLEND",
      "doubleSided": true,
      "name": "Translucent",
      "pbrMetallicRoughness": {
        "baseColorFactor": [
          0.87946899999999995,
          0.97099299999999999,
          1,
          0.45164286278873222
        ],
        "metallicFactor": 0,
        "roughnessFactor": 0.050351434008840575
      }
    },
    {
      "doubleSided": true,
      "name": "White",
      "pbrMetallicRoughness": {
        "baseColorFactor": [
          0.0495489,
          0.0495489,
          0.0495489,
          1
        ],
        "metallicFactor": 0,
        "roughnessFactor": 1
      }
    },
    {
      "alphaMode": "BLEND",
      "doubleSided": true,
      "name": "Material.008",
      "pbrMetallicRoughness": {
        "baseColorFactor": [
          0.80000000000000004,
          0.80000000000000004,
          0.80000000000000004,
          0
        ],
        "metallicFactor": 0,
        "roughnessFactor": 0.5
      }
    },
    {
      "doubleSided": true,
      "name": "FileBase",
      "pbrMetallicRoughness": {
        "baseColorFactor": [
          0.61517699999999997,
          0.61517699999999997,
          0.61517699999999997,
          1
        ],
        "metallicFactor": 0,
        "roughnessFactor": 0
      }
    },
    {
      "doubleSided": true,
      "name": "Cover",
      "pbrMetallicRoughness": {
        "baseColorFactor": [
          1,
          1,
          1,
          1
        ],
        "baseColorTexture": {
          "index": 0,
          "texCoord": 0
        },
        "metallicFactor": 0,
        "metallicRoughnessTexture": {
          "index": 1,
          "texCoord": 0
        },
        "roughnessFactor": 1
      }
    },
    {
      "alphaCutoff": 1,
      "alphaMode": "MASK",
      "doubleSided": true,
      "name": "Material.001",
      "pbrMetallicRoughness": {
        "baseColorFactor": [
          1,
          1,
          1,
          1
        ],
        "baseColorTexture": {
          "index": 2,
          "texCoord": 0
        },
        "metallicFactor": 0.48204372860539069,
        "roughnessFactor": 0.068591953498835651
      }
    },
    {
      "alphaCutoff": 0.5,
      "alphaMode": "MASK",
      "doubleSided": true,
      "name": "Material.002",
      "pbrMetallicRoughness": {
        "baseColorFactor": [
          1,
          1,
          1,
          1
        ],
        "baseColorTexture": {
          "index": 2,
          "texCoord": 0
        },
        "metallicFactor": 0,
        "roughnessFactor": 0.40909099999999998
      }
    }
  ],
  "meshes": [
    {
      "primitives": [
        {
          "attributes": {
            "NORMAL": 1,
            "POSITION": 0,
            "TEXCOORD_0": 2
          },
          "indices": 3,
          "material": 0,
          "mode": 4
        }
      ]
    },
    {
      "primitives": [
        {
          "attributes": {
            "NORMAL": 5,
            "POSITION": 4,
            "TEXCOORD_0": 6
          },
          "indices": 7,
          "material": 1,
          "mode": 4
        }
      ]
    },
    {
      "primitives": [
        {
          "attributes": {
            "NORMAL": 9,
            "POSITION": 8,
            "TEXCOORD_0": 10
          },
          "indices": 11,
          "material": 2,
          "mode": 4
        }
      ]
    },
    {
      "primitives": [
        {
          "attributes": {
            "NORMAL": 13,
            "POSITION": 12,
            "TEXCOORD_0": 14
          },
          "indices": 15,
          "material": 3,
          "mode": 4
        }
      ]
    },
    {
      "primitives": [
        {
          "attributes": {
            "NORMAL": 17,
            "POSITION": 16,
            "TEXCOORD_0": 18
          },
          "indices": 19,
          "material": 4,
          "mode": 4
        }
      ]
    },
    {
      "primitives": [
        {
          "attributes": {
            "NORMAL": 21,
            "POSITION": 20,
            "TEXCOORD_0": 22
          },
          "indices": 23,
          "material": 1,
          "mode": 4
        }
      ]
    },
    {
      "primitives": [
        {
          "attributes": {
            "NORMAL": 25,
            "POSITION": 24,
            "TEXCOORD_0": 26,
            "TEXCOORD_1": 27,
            "TEXCOORD_2": 28
          },
          "indices": 29,
          "material": 5,
          "mode": 4
        }
      ]
    },
    {
      "primitives": [
        {
          "attributes": {
            "NORMAL": 31,
            "POSITION": 30,
            "TEXCOORD_0": 32
          },
          "indices": 33,
          "material": 6,
          "mode": 4
        }
      ]
    },
    {
      "primitives": [
        {
          "attributes": {
            "NORMAL": 35,
            "POSITION": 34,
            "TEXCOORD_0": 36
          },
          "indices": 37,
          "material": 7,
          "mode": 4
        }
      ]
    }
  ],
  "nodes": [
    {
      "children": [
        1
      ],
      "name": "RootNode (gltf orientation matrix)",
      "rotation": [
        -0.70710678118654746,
        -0,
        -0,
        0.70710678118654757
      ]
    },
    {
      "children": [
        2
      ],
      "name": "RootNode (model correction matrix)"
    },
    {
      "children": [
        3
      ],
      "name": "root"
    },
    {
      "children": [
        4
      ],
      "matrix": [
        1,
        0,
        0,
        0,
        0,
        2.2204460492503131e-16,
        1,
        0,
        0,
        -1,
        2.2204460492503131e-16,
        0,
        0,
        0,
        0,
        1
      ],
      "name": "GLTF_SceneRootNode"
    },
    {
      "children": [
        5,
        6,
        7,
        8,
        9,
        10,
        13
      ],
      "matrix": [
        1,
        0,
        0,
        0,
        0,
        1,
        0,
        0,
        0,
        0,
        1,
        0,
        -0.10297346115112305,
        1.0448489189147949,
        0.64008057117462158,
        1
      ],
      "name": "Case Back_2"
    },
    {
      "mesh": 0,
      "name": ""
    },
    {
      "mesh": 1,
      "name": ""
    },
    {
      "mesh": 2,
      "name": ""
    },
    {
      "mesh": 3,
      "name": ""
    },
    {
      "mesh": 4,
      "name": ""
    },
    {
      "children": [
        11,
        12
      ],
      "matrix": [
        3.4704211482328162e-07,
        -0.9999999999999396,
        1.8815446478637199e-08,
        0,
        0.82630305205704957,
        2.9735930295871071e-07,
        0.56322576837456251,
        0,
        -0.56322576837453409,
        -1.7991580092413528e-07,
        0.82630305205710286,
        0,
        -0.00063085556030273438,
        0,
        1.1053247451782227,
        1
      ],
      "name": "Case Front_0"
    },
    {
      "mesh": 5,
      "name": ""
    },
    {
      "mesh": 6,
      "name": ""
    },
    {
      "children": [
        14,
        15
      ],
      "matrix": [
        2.8371553856740002e-15,
        1.022192955017087,
        -7.7173435209498077e-08,
        0,
        1.0221931934356661,
        2.8371560474184902e-15,
        7.717345320960332e-08,
        0,
        7.7173435209498077e-08,
        -7.7173435209498077e-08,
        -1.0221929550170841,
        0,
        0.52823066711425781,
        0.0059894323348999023,
        -1.907060980796814,
        1
      ],
      "name": "CD_1"
    },
    {
      "mesh": 7,
      "name": ""
    },
    {
      "mesh": 8,
      "name": ""
    }
  ],
  "samplers": [
    {
      "magFilter": 9729,
      "minFilter": 9987,
      "wrapS": 10497,
      "wrapT": 10497
    }
  ],
  "scene": 0,
  "scenes": [
    {
      "name": "OSG_Scene",
      "nodes": [
        0
      ]
    }
  ],
  "textures": [
    {
      "sampler": 0,
      "source": 0
    },
    {
      "sampler": 0,
      "source": 1
    },
    {
      "sampler": 0,
      "source": 2
    }
  ]
}

